<svg xmlns="http://www.w3.org/2000/svg"  viewBox="0 0 2272 1863" version="1.1"><path d="M 1134 0.934 C 1133.175 1.418, 883.200 97.082, 578.500 213.520 C 273.800 329.959, 23.901 425.552, 23.169 425.949 C 22.285 426.428, 75.796 469.837, 182.067 554.854 C 270.193 625.354, 342.446 682.887, 342.630 682.704 C 342.813 682.521, 328.121 627.950, 309.982 561.435 C 291.842 494.921, 277.122 440.136, 277.270 439.690 C 277.419 439.245, 470.693 360.440, 706.770 264.569 L 1136 90.257 1565.230 264.569 C 1801.307 360.440, 1994.581 439.245, 1994.730 439.690 C 1994.878 440.136, 1980.158 494.921, 1962.018 561.435 C 1943.879 627.950, 1929.188 682.521, 1929.372 682.705 C 1929.556 682.889, 1968.247 652.204, 2015.353 614.516 L 2101 545.992 2100.952 550.246 C 2100.926 552.586, 2095.849 613.450, 2089.670 685.500 L 2078.435 816.500 2088.717 816.784 L 2099 817.068 2099 828.956 L 2099 840.845 2095.579 841.974 C 2086.246 845.054, 2079.365 853.857, 2076.412 866.496 C 2074.234 875.817, 2073.434 899.175, 2074.913 910.277 C 2077.422 929.114, 2082.798 939.031, 2093.458 944.482 C 2098.923 947.277, 2100.140 947.500, 2109.929 947.499 C 2119.254 947.499, 2121.148 947.191, 2126 944.886 C 2135.888 940.191, 2142.184 931.849, 2145.740 918.735 C 2147.815 911.082, 2148.045 881.045, 2146.105 871.095 C 2143.169 856.040, 2137.412 847.144, 2127.977 843.085 L 2123 840.944 2123 828.972 L 2123 817 2133 817 C 2142.504 817, 2143 816.895, 2143 814.892 C 2143 813.733, 2137.588 750.395, 2130.972 674.142 C 2124.357 597.889, 2119.070 534.526, 2119.222 533.336 C 2119.417 531.817, 2138.924 515.638, 2184.788 478.958 C 2220.696 450.239, 2249.897 426.564, 2249.680 426.346 C 2249.462 426.129, 1999.358 330.399, 1693.892 213.614 C 1388.426 96.829, 1137.825 1.002, 1137 0.666 C 1136.175 0.329, 1134.825 0.450, 1134 0.934 M 1127.500 334.036 C 1044.240 342.466, 976.678 403.327, 959.395 485.467 C 956.244 500.444, 955.032 530.141, 956.939 545.650 C 962.385 589.933, 982.474 630.237, 1014.220 660.574 C 1097.307 739.972, 1229.682 728.938, 1298.509 636.878 C 1348.505 570.006, 1348.512 477.144, 1298.527 410.122 C 1273.567 376.655, 1237.869 351.871, 1198.318 340.551 C 1177.883 334.702, 1148.040 331.957, 1127.500 334.036 M 492.101 544.619 C 573.384 626.461, 1124.576 1181.801, 1134.985 1192.340 L 1145.690 1203.179 1492.095 854.463 C 1682.618 662.669, 1838.661 505.322, 1838.857 504.802 C 1839.329 503.554, 1863.487 491.042, 1558.500 650.010 C 1410 727.413, 1283.550 793.219, 1277.500 796.246 C 1248.438 810.784, 1214.537 820.846, 1180 825.182 C 1164.194 827.166, 1122.544 826.855, 1107.500 824.641 C 1071.601 819.357, 1040.493 809.692, 1011 794.661 C 1004.125 791.157, 876.134 724.506, 726.576 646.547 C 577.018 568.588, 453.943 504.564, 453.076 504.271 C 452.209 503.978, 469.771 522.135, 492.101 544.619 M 382.783 750.783 L 277.066 857.491 280.283 859.114 C 306.160 872.175, 1041.230 1231.103, 1041.516 1230.817 C 1041.911 1230.422, 490.252 644.698, 489.098 644.287 C 488.769 644.170, 440.927 692.093, 382.783 750.783 M 1525.320 937.318 C 1373.420 1098.553, 1249.315 1230.648, 1249.529 1230.863 C 1249.819 1231.152, 1971.017 878.967, 2007.758 860.595 L 2014.016 857.466 1908.483 750.983 C 1850.440 692.417, 1802.624 644.424, 1802.225 644.331 C 1801.826 644.239, 1677.219 776.083, 1525.320 937.318 M 1079 1333.056 C 1044.420 1337.363, 1016.960 1356.297, 1001.895 1386.218 C 989.699 1410.444, 987.620 1445.534, 996.812 1472.004 C 1007.622 1503.135, 1034.007 1526.678, 1067.693 1535.252 C 1075.402 1537.214, 1079.056 1537.494, 1097 1537.497 C 1113.431 1537.499, 1119.088 1537.132, 1125.500 1535.645 C 1153.881 1529.065, 1174.856 1513.156, 1186.998 1489 C 1193.600 1475.865, 1196.138 1465.012, 1197.578 1443.750 L 1198.238 1434 1155.119 1434 L 1112 1434 1112 1450.500 L 1112 1467 1129.128 1467 L 1146.256 1467 1145.603 1471.083 C 1142.776 1488.763, 1123.433 1502.027, 1100.540 1501.985 C 1073.680 1501.936, 1055.402 1487.148, 1047.830 1459.342 C 1044.996 1448.935, 1044.704 1422.508, 1047.296 1411.035 C 1052.253 1389.089, 1066.466 1373.665, 1086.460 1368.530 C 1098.712 1365.384, 1114.061 1367.250, 1125.325 1373.254 C 1132.850 1377.264, 1145.156 1389.525, 1150.500 1398.335 L 1154.500 1404.929 1169.750 1404.964 L 1185 1405 1185 1370.500 L 1185 1336 1169.500 1336 L 1154 1336 1154 1345.545 L 1154 1355.091 1147.750 1349.987 C 1139.728 1343.437, 1127.769 1337.625, 1117 1335.042 C 1107.011 1332.647, 1089.592 1331.736, 1079 1333.056 M 2163 1333.071 C 2130.569 1337.951, 2110.552 1367.617, 2117.514 1400.483 C 2119.582 1410.249, 2123.315 1417.279, 2129.872 1423.762 C 2137.856 1431.656, 2145.418 1436.249, 2171 1448.744 C 2204.227 1464.973, 2210.143 1470.222, 2210.143 1483.470 C 2210.143 1491.298, 2207.081 1496.410, 2200 1500.400 C 2194.866 1503.293, 2193.834 1503.500, 2184.500 1503.499 C 2175.524 1503.499, 2173.966 1503.217, 2169.283 1500.749 C 2158.405 1495.016, 2152.362 1485.705, 2151.300 1473.040 L 2150.710 1466 2134.355 1466 L 2118 1466 2118 1500 L 2118 1534 2134.450 1534 L 2150.900 1534 2151.200 1528.453 L 2151.500 1522.905 2155 1525.572 C 2160.067 1529.432, 2171.847 1534.751, 2179.168 1536.484 C 2182.651 1537.308, 2189.775 1538.246, 2195 1538.569 C 2224.540 1540.396, 2248.055 1525.940, 2256.396 1500.828 C 2262.117 1483.603, 2260.275 1464.590, 2251.473 1450 C 2243.256 1436.380, 2229.529 1426.257, 2202.905 1414.182 C 2173.942 1401.048, 2169.179 1398.066, 2166.351 1391.298 C 2163.219 1383.801, 2165.645 1374.001, 2171.946 1368.699 C 2178.849 1362.891, 2194.276 1363.098, 2203.369 1369.121 C 2210.585 1373.901, 2215.862 1383.177, 2215.956 1391.250 L 2216 1395 2232.500 1395 L 2249 1395 2249 1365.500 L 2249 1336 2233 1336 L 2217 1336 2217 1341.488 L 2217 1346.975 2211.331 1343.349 C 2196.915 1334.127, 2179.954 1330.520, 2163 1333.071 M 4 1375 L 4 1414 20.500 1414 L 37 1414 37 1390.500 L 37 1367 50 1367 L 63 1367 63 1434 L 63 1501 49.500 1501 L 36 1501 36 1517.500 L 36 1534 88 1534 L 140 1534 140 1517.500 L 140 1501 126.500 1501 L 113 1501 113 1434 L 113 1367 126.500 1367 L 140 1367 140 1390.500 L 140 1414 156 1414 L 172 1414 172 1375 L 172 1336 88 1336 L 4 1336 4 1375 M 179 1351.500 L 179 1367 189.500 1367 L 200 1367 200 1434 L 200 1501 189.500 1501 L 179 1501 179 1517.500 L 179 1534 223.525 1534 L 268.050 1534 267.775 1517.750 L 267.500 1501.500 258.250 1501.212 L 249 1500.925 249 1472.962 L 249 1445 277 1445 L 305 1445 305 1473 L 305 1501 296 1501 L 287 1501 287 1517.500 L 287 1534 331 1534 L 375 1534 375 1517.500 L 375 1501 364.500 1501 L 354 1501 354 1434 L 354 1367 364.500 1367 L 375 1367 375 1351.500 L 375 1336 331 1336 L 287 1336 287 1351.500 L 287 1367 296 1367 L 305 1367 305 1389.500 L 305 1412 277 1412 L 249 1412 249 1389.500 L 249 1367 258.500 1367 L 268 1367 268 1351.500 L 268 1336 223.500 1336 L 179 1336 179 1351.500 M 384 1351.500 L 384 1367 394.500 1367 L 405 1367 405 1434 L 405 1501 394.500 1501 L 384 1501 384 1517.500 L 384 1534 467.500 1534 L 551 1534 551 1501.500 L 551 1469 532.500 1469 L 514 1469 514 1485 L 514 1501 484 1501 L 454 1501 454 1474.500 L 454 1448 479.500 1448 L 505 1448 505 1431.500 L 505 1415 479.500 1415 L 454 1415 454 1391 L 454 1367 484 1367 L 514 1367 514 1382.500 L 514 1398 532.500 1398 L 551 1398 551 1367 L 551 1336 467.500 1336 L 384 1336 384 1351.500 M 628 1351.445 L 628 1367 638.500 1367 L 649 1367 649 1434 L 649 1501 638.500 1501 L 628 1501 628 1517.544 L 628 1534.089 687.250 1533.741 C 752.640 1533.356, 750.657 1533.536, 764.933 1526.695 C 772.973 1522.842, 784.608 1511.672, 787.829 1504.714 C 792.821 1493.928, 794.428 1478.946, 791.895 1466.799 C 789.002 1452.926, 778.614 1439.198, 765.990 1432.564 L 758.975 1428.878 765.932 1425.398 C 782.499 1417.110, 789.729 1400.109, 786.026 1378.152 C 782.629 1358.012, 769.364 1345.004, 745.938 1338.839 C 737.810 1336.700, 735.491 1336.605, 682.750 1336.254 L 628 1335.890 628 1351.445 M 808 1351.500 L 808 1367 818.500 1367 L 829 1367 829 1434 L 829 1501 818.500 1501 L 808 1501 808 1517.500 L 808 1534 891.500 1534 L 975 1534 975 1501.500 L 975 1469 956.500 1469 L 938 1469 938 1485 L 938 1501 908 1501 L 878 1501 878 1474.500 L 878 1448 903.500 1448 L 929 1448 929 1431.500 L 929 1415 903.500 1415 L 878 1415 878 1391 L 878 1367 908 1367 L 938 1367 938 1382.500 L 938 1398 956.500 1398 L 975 1398 975 1367 L 975 1336 891.500 1336 L 808 1336 808 1351.500 M 1209 1351.500 L 1209 1367 1219.500 1367 L 1230 1367 1230 1434 L 1230 1501 1219.500 1501 L 1209 1501 1209 1517.500 L 1209 1534 1254.500 1534 L 1300 1534 1300 1517.500 L 1300 1501 1289.500 1501 L 1279 1501 1279 1434 L 1279 1367 1289.500 1367 L 1300 1367 1300 1351.500 L 1300 1336 1254.500 1336 L 1209 1336 1209 1351.500 M 1309 1351.500 L 1309 1367 1320 1367 L 1331 1367 1331 1434 L 1331 1501 1320 1501 L 1309 1501 1309 1517.500 L 1309 1534 1349 1534 L 1389 1534 1389 1517.500 L 1389 1501 1378 1501 L 1367 1501 1367 1465.161 C 1367 1445.450, 1366.728 1419.687, 1366.396 1407.911 L 1365.791 1386.500 1408.172 1460 L 1450.552 1533.500 1472.276 1533.770 L 1494 1534.039 1494 1450.520 L 1494 1367 1505 1367 L 1516 1367 1516 1351.500 L 1516 1336 1476 1336 L 1436 1336 1436 1351.500 L 1436 1367 1446.886 1367 L 1457.772 1367 1458.455 1394.250 C 1458.831 1409.237, 1458.995 1430.237, 1458.819 1440.916 L 1458.500 1460.332 1423 1398.198 L 1387.500 1336.064 1348.250 1336.032 L 1309 1336 1309 1351.500 M 1524 1351.500 L 1524 1367 1535 1367 L 1546 1367 1546 1434 L 1546 1501 1535 1501 L 1524 1501 1524 1517.500 L 1524 1534 1564 1534 L 1604 1534 1604 1517.500 L 1604 1501 1593 1501 L 1582 1501 1582 1465.161 C 1582 1445.450, 1581.728 1419.687, 1581.396 1407.911 L 1580.791 1386.500 1623.172 1460 L 1665.552 1533.500 1687.276 1533.770 L 1709 1534.039 1709 1450.520 L 1709 1367 1720 1367 L 1731 1367 1731 1351.500 L 1731 1336 1691 1336 L 1651 1336 1651 1351.500 L 1651 1367 1661.886 1367 L 1672.772 1367 1673.455 1394.250 C 1673.831 1409.237, 1673.995 1430.237, 1673.819 1440.916 L 1673.500 1460.332 1638 1398.198 L 1602.500 1336.064 1563.250 1336.032 L 1524 1336 1524 1351.500 M 1738 1351.500 L 1738 1367 1748.500 1367 L 1759 1367 1759 1434 L 1759 1501 1748.500 1501 L 1738 1501 1738 1517.500 L 1738 1534 1821.500 1534 L 1905 1534 1905 1501.500 L 1905 1469 1886.500 1469 L 1868 1469 1868 1485 L 1868 1501 1838 1501 L 1808 1501 1808 1474.500 L 1808 1448 1833.500 1448 L 1859 1448 1859 1431.500 L 1859 1415 1833.500 1415 L 1808 1415 1808 1391 L 1808 1367 1838 1367 L 1868 1367 1868 1382.500 L 1868 1398 1886.500 1398 L 1905 1398 1905 1367 L 1905 1336 1821.500 1336 L 1738 1336 1738 1351.500 M 1916 1351.450 L 1916 1367 1926.500 1367 L 1937 1367 1937 1434 L 1937 1501 1926.500 1501 L 1916 1501 1916 1517.500 L 1916 1534 1961.500 1534 L 2007 1534 2007 1517.500 L 2007 1501 1996.500 1501 L 1986 1501 1986 1473.965 L 1986 1446.930 1996.044 1447.215 L 2006.088 1447.500 2028.267 1490.750 L 2050.445 1534 2078.723 1534 L 2107 1534 2107 1517.500 L 2107 1501 2095.571 1501 L 2084.142 1501 2068.571 1470.336 C 2060.007 1453.471, 2053 1439.581, 2053 1439.470 C 2053 1439.359, 2055.682 1438.290, 2058.959 1437.095 C 2074.975 1431.255, 2084.381 1416.447, 2085.721 1394.964 C 2087.169 1371.743, 2077.396 1352.541, 2059.873 1344.178 C 2056.259 1342.453, 2049.521 1340.044, 2044.901 1338.825 C 2036.755 1336.676, 2034.673 1336.598, 1976.250 1336.254 L 1916 1335.899 1916 1351.450 M 697 1391.502 L 697 1416.241 709.324 1415.831 C 720.541 1415.458, 722.178 1415.155, 727.564 1412.460 C 732.609 1409.937, 733.888 1408.709, 736.241 1404.136 C 741.247 1394.404, 739.617 1379.502, 732.868 1373.298 C 728.176 1368.984, 723.216 1367.678, 709.750 1367.208 L 697 1366.764 697 1391.502 M 1986 1390.850 L 1986 1415 1996.750 1414.983 C 2016.344 1414.951, 2027.696 1411.077, 2031.750 1403.038 C 2036.437 1393.744, 2033.505 1378.344, 2026.037 1373.026 C 2021.698 1369.937, 2012.995 1368.126, 1998.913 1367.383 L 1986 1366.701 1986 1390.850 M 697 1473.974 L 697 1502.222 711.250 1501.778 C 728.105 1501.252, 735.036 1499.206, 739.880 1493.329 C 748.601 1482.749, 745.869 1460.989, 734.815 1452.981 C 728.815 1448.634, 722.048 1446.893, 708.750 1446.273 L 697 1445.725 697 1473.974 M 715.058 1595.122 C 675.194 1599.741, 642.448 1628.567, 632.482 1667.814 C 627.931 1685.735, 627.937 1708.820, 632.496 1726.324 C 642.082 1763.125, 670.969 1790.250, 708.783 1797.956 C 723.749 1801.006, 746.392 1800.852, 759.122 1797.615 C 772.761 1794.147, 784.112 1789.482, 792.399 1783.939 C 801.208 1778.048, 812.494 1766.390, 818.745 1756.728 C 823.303 1749.681, 830 1735.198, 830 1732.385 C 830 1731.488, 823.573 1727.846, 813.250 1722.895 C 804.038 1718.476, 796.150 1714.780, 795.722 1714.680 C 795.294 1714.581, 793.574 1717.874, 791.900 1721.997 C 788.264 1730.951, 779.821 1743.888, 773.828 1749.689 C 764.011 1759.191, 751.555 1764, 736.763 1764 C 716.368 1764, 698.607 1752.920, 690.055 1734.861 C 684.717 1723.589, 682.877 1713.756, 682.876 1696.486 C 682.875 1681.668, 684.230 1672.706, 687.973 1662.764 C 699.298 1632.690, 733.054 1620.359, 762.172 1635.660 C 770.332 1639.948, 781.634 1651.393, 787 1660.803 L 790.500 1666.941 805.750 1666.970 L 821 1667 821 1632.500 L 821 1598 806 1598 L 791 1598 791 1608.093 L 791 1618.185 785.915 1613.613 C 768.978 1598.386, 743.738 1591.799, 715.058 1595.122 M 456 1613.472 L 456 1628.944 469.413 1629.222 L 482.825 1629.500 461.220 1696.250 L 439.614 1763 428.807 1763 L 418 1763 418 1779.500 L 418 1796 461 1796 L 504 1796 504 1779.500 L 504 1763 493.500 1763 C 486.073 1763, 483 1762.653, 483 1761.815 C 483 1761.163, 485.137 1753.064, 487.750 1743.816 L 492.500 1727.003 520.708 1727.002 L 548.915 1727 551.031 1734.250 C 552.195 1738.237, 554.464 1745.966, 556.074 1751.425 C 557.683 1756.883, 559 1761.721, 559 1762.175 C 559 1762.629, 554.500 1763, 549 1763 L 539 1763 539 1779.500 L 539 1796 583 1796 L 627 1796 627 1779.500 L 627 1763 618 1763 C 613.050 1763, 609 1762.782, 609 1762.516 C 609 1762.250, 599.325 1732.349, 587.500 1696.069 C 575.675 1659.789, 566 1629.857, 566 1629.553 C 566 1629.249, 571.175 1629, 577.500 1629 L 589 1629 589 1613.500 L 589 1598 522.500 1598 L 456 1598 456 1613.472 M 864 1613.472 L 864 1628.944 877.413 1629.222 L 890.825 1629.500 869.220 1696.250 L 847.614 1763 836.807 1763 L 826 1763 826 1779.500 L 826 1796 869 1796 L 912 1796 912 1779.500 L 912 1763 901.500 1763 C 894.073 1763, 891 1762.653, 891 1761.815 C 891 1761.163, 893.138 1753.064, 895.750 1743.816 L 900.500 1727.003 928.708 1727.002 L 956.915 1727 959.031 1734.250 C 960.195 1738.237, 962.464 1745.966, 964.074 1751.425 C 965.683 1756.883, 967 1761.721, 967 1762.175 C 967 1762.629, 962.500 1763, 957 1763 L 947 1763 947 1779.500 L 947 1796 991 1796 L 1035 1796 1035 1779.500 L 1035 1763 1026 1763 C 1021.050 1763, 1017 1762.782, 1017 1762.516 C 1017 1762.250, 1007.325 1732.349, 995.500 1696.069 C 983.675 1659.789, 974 1629.857, 974 1629.553 C 974 1629.249, 979.175 1629, 985.500 1629 L 997 1629 997 1613.500 L 997 1598 930.500 1598 L 864 1598 864 1613.472 M 1037 1613.443 L 1037 1629 1047.500 1629 L 1058 1629 1058 1696 L 1058 1763 1047.500 1763 L 1037 1763 1037 1779.500 L 1037 1796 1092.869 1796 C 1154.219 1796, 1158.606 1795.677, 1174.090 1790.026 C 1190.164 1784.160, 1204.625 1774.369, 1212.683 1763.896 C 1221.650 1752.243, 1228.739 1733.905, 1231.088 1716.281 C 1232.974 1702.131, 1231.762 1676.725, 1228.617 1664.500 C 1224.719 1649.345, 1217.664 1635.935, 1208.419 1626.108 C 1196.271 1613.194, 1184.394 1606.214, 1166 1601.179 L 1156.500 1598.579 1096.750 1598.232 L 1037 1597.885 1037 1613.443 M 1236 1613.500 L 1236 1629 1246.500 1629 L 1257 1629 1257 1696 L 1257 1763 1246.500 1763 L 1236 1763 1236 1779.500 L 1236 1796 1319.500 1796 L 1403 1796 1403 1763.500 L 1403 1731 1384.500 1731 L 1366 1731 1366 1747 L 1366 1763 1336 1763 L 1306 1763 1306 1736.500 L 1306 1710 1331.500 1710 L 1357 1710 1357 1693.500 L 1357 1677 1331.500 1677 L 1306 1677 1306 1653 L 1306 1629 1336 1629 L 1366 1629 1366 1644.500 L 1366 1660 1384.500 1660 L 1403 1660 1403 1629 L 1403 1598 1319.500 1598 L 1236 1598 1236 1613.500 M 1415 1613.500 L 1415 1629 1425.500 1629 L 1436 1629 1436 1696 L 1436 1763 1425.500 1763 L 1415 1763 1415 1779.500 L 1415 1796 1451.500 1796 L 1488 1796 1488 1779.500 L 1488 1763 1477.500 1763 L 1467 1763 1467.079 1697.250 C 1467.122 1661.088, 1467.413 1632.175, 1467.724 1633 C 1468.036 1633.825, 1480.872 1669.600, 1496.249 1712.500 C 1511.626 1755.400, 1524.660 1791.753, 1525.214 1793.285 L 1526.220 1796.070 1535.831 1795.785 L 1545.443 1795.500 1574.692 1715.500 C 1590.779 1671.500, 1604.143 1635.050, 1604.391 1634.500 C 1604.639 1633.950, 1604.878 1662.638, 1604.921 1698.250 L 1605 1763 1595 1763 L 1585 1763 1585 1779.500 L 1585 1796 1629 1796 L 1673 1796 1673 1779.500 L 1673 1763 1663 1763 L 1653 1763 1653 1696 L 1653 1629 1670.750 1629.031 L 1688.500 1629.061 1712.250 1668.800 L 1736 1708.539 1736 1735.740 L 1736 1762.940 1723.250 1763.220 L 1710.500 1763.500 1710.225 1779.750 L 1709.950 1796 1760.475 1796 L 1811 1796 1811 1779.500 L 1811 1763 1798 1763 L 1785 1763 1785 1738.537 L 1785 1714.075 1810.565 1671.537 L 1836.130 1629 1847.065 1629 L 1858 1629 1858 1613.500 L 1858 1598 1816.500 1598 L 1775 1598 1775 1613.461 L 1775 1628.922 1783.409 1629.211 L 1791.817 1629.500 1779.032 1650.797 L 1766.247 1672.095 1754.767 1652.797 C 1748.453 1642.184, 1742.757 1632.487, 1742.109 1631.250 C 1740.930 1629, 1740.931 1629, 1749.465 1629 L 1758 1629 1758 1613.500 L 1758 1598 1671.730 1598 L 1585.460 1598 1563.484 1657.954 C 1544.599 1709.472, 1541.354 1717.597, 1540.419 1715.704 C 1539.821 1714.492, 1530.144 1687.516, 1518.916 1655.757 L 1498.500 1598.014 1456.750 1598.007 L 1415 1598 1415 1613.500 M 1107 1695.893 C 1107 1755.968, 1107.161 1762.848, 1108.582 1763.393 C 1111.774 1764.618, 1130.274 1763.962, 1137.303 1762.374 C 1161.542 1756.900, 1174.539 1740.186, 1178.052 1709.973 C 1180.340 1690.293, 1177.748 1671.003, 1170.969 1657.248 C 1161.504 1638.046, 1144.193 1629, 1116.912 1629 L 1107 1629 1107 1695.893 M 520.630 1632 C 520.298 1632.825, 515.584 1648.575, 510.155 1667 L 500.284 1700.500 520.788 1700.771 C 532.065 1700.920, 541.413 1700.920, 541.561 1700.771 C 541.782 1700.549, 522.839 1634.787, 521.608 1631.500 C 521.401 1630.950, 520.961 1631.175, 520.630 1632 M 928.630 1632 C 928.298 1632.825, 923.584 1648.575, 918.155 1667 L 908.284 1700.500 928.788 1700.771 C 940.065 1700.920, 949.413 1700.920, 949.561 1700.771 C 949.782 1700.549, 930.839 1634.787, 929.608 1631.500 C 929.401 1630.950, 928.961 1631.175, 928.630 1632" stroke="none" fill="#34347c" fill-rule="evenodd"/><path d="M 334.500 1104.694 C 294.350 1160.070, 261.350 1205.742, 261.167 1206.189 C 260.983 1206.635, 386.511 1207, 540.117 1207 C 703.150 1207, 819.005 1206.630, 818.450 1206.111 C 817.195 1204.936, 409.475 1003.998, 408.361 1004.005 C 407.887 1004.008, 374.650 1049.318, 334.500 1104.694 M 1678 1104.452 C 1566.075 1159.668, 1473.825 1205.304, 1473 1205.864 C 1471.980 1206.556, 1560.847 1206.901, 1750.750 1206.941 C 1904.338 1206.974, 2030 1206.778, 2030 1206.506 C 2030 1205.225, 1883.802 1004.472, 1882.728 1004.280 C 1882.053 1004.159, 1789.925 1049.236, 1678 1104.452" stroke="none" fill="#fcc40c" fill-rule="evenodd"/>
<defs>
<clipPath id="clip0_3868_4519">
<rect width="1000" height="1024" fill="white"/>
</clipPath>
</defs>
</svg>